{
  "accessors": [
    {
      "bufferView": 2,
      "componentType": 5126,
      "count": 156,
      "max": [
        1.0,
        0.13265511393547058,
        1.0
      ],
      "min": [
        -1.0,
        -0.13265511393547058,
        -1.0
      ],
      "type": "VEC3"
    },
    {
      "bufferView": 2,
      "byteOffset": 1872,
      "componentType": 5126,
      "count": 156,
      "max": [
        1.0,
        1.0,
        1.0
      ],
      "min": [
        -0.9992290139198303,
        -1.0,
        -1.0
      ],
      "type": "VEC3"
    },
    {
      "bufferView": 1,
      "componentType": 5126,
      "count": 156,
      "max": [
        0.875,
        1.0
      ],
      "min": [
        0.125,
        0.0
      ],
      "type": "VEC2"
    },
    {
      "bufferView": 0,
      "componentType": 5125,
      "count": 378,
      "type": "SCALAR"
    },
    {
      "bufferView": 2,
      "byteOffset": 3744,
      "componentType": 5126,
      "count": 12,
      "max": [
        0.9458039402961731,
        0.09916979819536209,
        0.9458039402961731
      ],
      "min": [
        -0.9665147066116333,
        -0.09916979819536209,
        -0.9458039402961731
      ],
      "type": "VEC3"
    },
    {
      "bufferView": 2,
      "byteOffset": 3888,
      "componentType": 5126,
      "count": 12,
      "max": [
        1.0,
        0.0,
        0.9999311566352844
      ],
      "min": [
        -0.011738196015357971,
        0.0,
        -0.9999311566352844
      ],
      "type": "VEC3"
    },
    {
      "bufferView": 1,
      "byteOffset": 1248,
      "componentType": 5126,
      "count": 12,
      "max": [
        0.5934470295906067,
        0.745814323425293
      ],
      "min": [
        0.4065529704093933,
        0.004185676574707031
      ],
      "type": "VEC2"
    },
    {
      "bufferView": 0,
      "byteOffset": 1512,
      "componentType": 5125,
      "count": 18,
      "type": "SCALAR"
    },
    {
      "bufferView": 2,
      "byteOffset": 4032,
      "componentType": 5126,
      "count": 156,
      "max": [
        1.0,
        0.13265511393547058,
        1.0
      ],
      "min": [
        -1.0,
        -0.13265511393547058,
        -1.0
      ],
      "type": "VEC3"
    },
    {
      "bufferView": 2,
      "byteOffset": 5904,
      "componentType": 5126,
      "count": 156,
      "max": [
        1.0,
        1.0,
        1.0
      ],
      "min": [
        -0.9992290139198303,
        -1.0,
        -1.0
      ],
      "type": "VEC3"
    },
    {
      "bufferView": 1,
      "byteOffset": 1344,
      "componentType": 5126,
      "count": 156,
      "max": [
        0.875,
        1.0
      ],
      "min": [
        0.125,
        0.0
      ],
      "type": "VEC2"
    },
    {
      "bufferView": 0,
      "byteOffset": 1584,
      "componentType": 5125,
      "count": 378,
      "type": "SCALAR"
    },
    {
      "bufferView": 2,
      "byteOffset": 7776,
      "componentType": 5126,
      "count": 12,
      "max": [
        0.9458039402961731,
        0.09916979819536209,
        0.9458039402961731
      ],
      "min": [
        -0.9665147066116333,
        -0.09916979819536209,
        -0.9458039402961731
      ],
      "type": "VEC3"
    },
    {
      "bufferView": 2,
      "byteOffset": 7920,
      "componentType": 5126,
      "count": 12,
      "max": [
        1.0,
        0.0,
        0.9999311566352844
      ],
      "min": [
        -0.011738196015357971,
        0.0,
        -0.9999311566352844
      ],
      "type": "VEC3"
    },
    {
      "bufferView": 1,
      "byteOffset": 2592,
      "componentType": 5126,
      "count": 12,
      "max": [
        0.5934470295906067,
        0.745814323425293
      ],
      "min": [
        0.4065529704093933,
        0.004185676574707031
      ],
      "type": "VEC2"
    },
    {
      "bufferView": 0,
      "byteOffset": 3096,
      "componentType": 5125,
      "count": 18,
      "type": "SCALAR"
    },
    {
      "bufferView": 2,
      "byteOffset": 8064,
      "componentType": 5126,
      "count": 130,
      "max": [
        1.0,
        1.0,
        1.0
      ],
      "min": [
        -1.0,
        -1.0,
        -1.0
      ],
      "type": "VEC3"
    },
    {
      "bufferView": 2,
      "byteOffset": 9624,
      "componentType": 5126,
      "count": 130,
      "max": [
        1.0,
        1.0,
        1.0
      ],
      "min": [
        -1.0,
        -1.0,
        -1.0
      ],
      "type": "VEC3"
    },
    {
      "bufferView": 1,
      "byteOffset": 2688,
      "componentType": 5126,
      "count": 130,
      "max": [
        1.0,
        0.9900000095367432
      ],
      "min": [
        0.0,
        0.0
      ],
      "type": "VEC2"
    },
    {
      "bufferView": 0,
      "byteOffset": 3168,
      "componentType": 5125,
      "count": 372,
      "type": "SCALAR"
    },
    {
      "bufferView": 2,
      "byteOffset": 11184,
      "componentType": 5126,
      "count": 3456,
      "max": [
        1.0,
        0.0779106542468071,
        1.0
      ],
      "min": [
        -1.0,
        0.0,
        -1.0
      ],
      "type": "VEC3"
    },
    {
      "bufferView": 2,
      "byteOffset": 52656,
      "componentType": 5126,
      "count": 3456,
      "max": [
        1.0,
        1.0,
        1.0
      ],
      "min": [
        -1.0,
        -1.0,
        -1.0
      ],
      "type": "VEC3"
    },
    {
      "bufferView": 1,
      "byteOffset": 3728,
      "componentType": 5126,
      "count": 3456,
      "max": [
        1.0000001192092896,
        1.0
      ],
      "min": [
        0.0,
        -1.1920928955078125e-07
      ],
      "type": "VEC2"
    },
    {
      "bufferView": 0,
      "byteOffset": 4656,
      "componentType": 5125,
      "count": 5172,
      "type": "SCALAR"
    },
    {
      "bufferView": 2,
      "byteOffset": 94128,
      "componentType": 5126,
      "count": 130,
      "max": [
        1.0,
        1.0,
        1.0
      ],
      "min": [
        -1.0,
        -1.0,
        -1.0
      ],
      "type": "VEC3"
    },
    {
      "bufferView": 2,
      "byteOffset": 95688,
      "componentType": 5126,
      "count": 130,
      "max": [
        1.0,
        1.0,
        1.0
      ],
      "min": [
        -1.0,
        -1.0,
        -1.0
      ],
      "type": "VEC3"
    },
    {
      "bufferView": 1,
      "byteOffset": 31376,
      "componentType": 5126,
      "count": 130,
      "max": [
        1.0,
        0.9900000095367432
      ],
      "min": [
        0.0,
        0.0
      ],
      "type": "VEC2"
    },
    {
      "bufferView": 0,
      "byteOffset": 25344,
      "componentType": 5125,
      "count": 372,
      "type": "SCALAR"
    },
    {
      "bufferView": 2,
      "byteOffset": 97248,
      "componentType": 5126,
      "count": 65533,
      "max": [
        1.0256155729293823,
        0.055888962000608444,
        0.03979337960481644
      ],
      "min": [
        0.008682282641530037,
        -0.7260410189628601,
        -0.039793383330106735
      ],
      "type": "VEC3"
    },
    {
      "bufferView": 2,
      "byteOffset": 883644,
      "componentType": 5126,
      "count": 65533,
      "max": [
        0.9997471570968628,
        0.999742865562439,
        0.9997429847717285
      ],
      "min": [
        -0.9999977350234985,
        -0.999855637550354,
        -0.9997431039810181
      ],
      "type": "VEC3"
    },
    {
      "bufferView": 0,
      "byteOffset": 26832,
      "componentType": 5125,
      "count": 98379,
      "type": "SCALAR"
    },
    {
      "bufferView": 2,
      "byteOffset": 1670040,
      "componentType": 5126,
      "count": 65534,
      "max": [
        1.016778826713562,
        0.05588895082473755,
        0.03979337215423584
      ],
      "min": [
        0.014925999566912651,
        -0.7196932435035706,
        -0.03979337215423584
      ],
      "type": "VEC3"
    },
    {
      "bufferView": 2,
      "byteOffset": 2456448,
      "componentType": 5126,
      "count": 65534,
      "max": [
        0.9040811657905579,
        0.9997429251670837,
        0.9997429251670837
      ],
      "min": [
        -0.9512420296669006,
        -0.9997429251670837,
        -0.9997429251670837
      ],
      "type": "VEC3"
    },
    {
      "bufferView": 0,
      "byteOffset": 420348,
      "componentType": 5125,
      "count": 98298,
      "type": "SCALAR"
    },
    {
      "bufferView": 2,
      "byteOffset": 3242856,
      "componentType": 5126,
      "count": 65534,
      "max": [
        1.0250300168991089,
        0.055303409695625305,
        0.039207834750413895
      ],
      "min": [
        0.009172094985842705,
        -0.7255458235740662,
        -0.03920784220099449
      ],
      "type": "VEC3"
    },
    {
      "bufferView": 2,
      "byteOffset": 4029264,
      "componentType": 5126,
      "count": 65534,
      "max": [
        0.9363960027694702,
        0.936396598815918,
        0.9363299012184143
      ],
      "min": [
        -0.9364158511161804,
        -0.9364145398139954,
        -0.9363300204277039
      ],
      "type": "VEC3"
    },
    {
      "bufferView": 0,
      "byteOffset": 813540,
      "componentType": 5125,
      "count": 98298,
      "type": "SCALAR"
    },
    {
      "bufferView": 2,
      "byteOffset": 4815672,
      "componentType": 5126,
      "count": 65534,
      "max": [
        1.025372862815857,
        0.055888962000608444,
        0.03979337215423584
      ],
      "min": [
        0.03911922499537468,
        -0.3259470462799072,
        -0.03979337215423584
      ],
      "type": "VEC3"
    },
    {
      "bufferView": 2,
      "byteOffset": 5602080,
      "componentType": 5126,
      "count": 65534,
      "max": [
        0.9996097683906555,
        0.9997429251670837,
        0.9997429251670837
      ],
      "min": [
        -0.9995511174201965,
        -0.9997429251670837,
        -0.9997429251670837
      ],
      "type": "VEC3"
    },
    {
      "bufferView": 0,
      "byteOffset": 1206732,
      "componentType": 5125,
      "count": 98298,
      "type": "SCALAR"
    },
    {
      "bufferView": 2,
      "byteOffset": 6388488,
      "componentType": 5126,
      "count": 65534,
      "max": [
        1.0256154537200928,
        0.05588895082473755,
        0.03979337960481644
      ],
      "min": [
        0.008168481290340424,
        -0.7265629768371582,
        -0.039793383330106735
      ],
      "type": "VEC3"
    },
    {
      "bufferView": 2,
      "byteOffset": 7174896,
      "componentType": 5126,
      "count": 65534,
      "max": [
        0.9997443556785583,
        0.999742865562439,
        0.9997431039810181
      ],
      "min": [
        -0.9997461438179016,
        -0.9997428059577942,
        -0.9997431039810181
      ],
      "type": "VEC3"
    },
    {
      "bufferView": 0,
      "byteOffset": 1599924,
      "componentType": 5125,
      "count": 98298,
      "type": "SCALAR"
    },
    {
      "bufferView": 2,
      "byteOffset": 7961304,
      "componentType": 5126,
      "count": 2175,
      "max": [
        0.613761842250824,
        0.05588895082473755,
        0.03979337215423584
      ],
      "min": [
        0.5244116187095642,
        -0.02369779162108898,
        -0.03979337215423584
      ],
      "type": "VEC3"
    },
    {
      "bufferView": 2,
      "byteOffset": 7987404,
      "componentType": 5126,
      "count": 2175,
      "max": [
        0.0034531867131590843,
        0.999742865562439,
        0.999742865562439
      ],
      "min": [
        -0.0034521620254963636,
        -0.9997429251670837,
        -0.999742865562439
      ],
      "type": "VEC3"
    },
    {
      "bufferView": 0,
      "byteOffset": 1993116,
      "componentType": 5125,
      "count": 3261,
      "type": "SCALAR"
    },
    {
      "bufferView": 2,
      "byteOffset": 8013504,
      "componentType": 5126,
      "count": 559,
      "max": [
        1.000000238418579,
        1.0,
        1.0000003576278687
      ],
      "min": [
        -0.9999998211860657,
        -1.0,
        -1.0
      ],
      "type": "VEC3"
    },
    {
      "bufferView": 2,
      "byteOffset": 8020212,
      "componentType": 5126,
      "count": 559,
      "max": [
        1.0,
        1.0,
        1.0
      ],
      "min": [
        -1.0,
        -1.0,
        -1.0
      ],
      "type": "VEC3"
    },
    {
      "bufferView": 1,
      "byteOffset": 32416,
      "componentType": 5126,
      "count": 559,
      "max": [
        1.000000238418579,
        1.0
      ],
      "min": [
        0.0,
        0.0
      ],
      "type": "VEC2"
    },
    {
      "bufferView": 0,
      "byteOffset": 2006160,
      "componentType": 5125,
      "count": 2880,
      "type": "SCALAR"
    }
  ],
  "asset": {
    "extras": {
      "author": "Ramesh Madhushan (https://sketchfab.com/madhushan)",
      "license": "CC-BY-4.0 (http://creativecommons.org/licenses/by/4.0/)",
      "source": "https://sketchfab.com/3d-models/graduation-2e3aae15417b4631a081b1eab7018472",
      "title": "Graduation"
    },
    "generator": "Sketchfab-12.67.0",
    "version": "2.0"
  },
  "bufferViews": [
    {
      "buffer": 0,
      "byteLength": 2017680,
      "name": "floatBufferViews",
      "target": 34963
    },
    {
      "buffer": 0,
      "byteLength": 36888,
      "byteOffset": 2017680,
      "byteStride": 8,
      "name": "floatBufferViews",
      "target": 34962
    },
    {
      "buffer": 0,
      "byteLength": 8026920,
      "byteOffset": 2054568,
      "byteStride": 12,
      "name": "floatBufferViews",
      "target": 34962
    }
  ],
  "buffers": [
    {
      "byteLength": 10081488,
      "uri": "scene.bin"
    }
  ],
  "materials": [
    {
      "doubleSided": true,
      "name": "material_0",
      "pbrMetallicRoughness": {
        "metallicFactor": 0.0,
        "roughnessFactor": 0.6
      }
    },
    {
      "doubleSided": true,
      "name": "Material",
      "pbrMetallicRoughness": {
        "baseColorFactor": [
          0.8,
          0.0182906,
          0.0268748,
          1.0
        ],
        "metallicFactor": 0.0,
        "roughnessFactor": 0.4
      }
    },
    {
      "doubleSided": true,
      "name": "Material.003",
      "pbrMetallicRoughness": {
        "baseColorFactor": [
          0.0,
          0.000859914,
          0.8,
          1.0
        ],
        "metallicFactor": 0.0,
        "roughnessFactor": 0.5
      }
    },
    {
      "doubleSided": true,
      "name": "Material.002",
      "pbrMetallicRoughness": {
        "baseColorFactor": [
          0.000883639,
          0.000673469,
          0.00900373,
          1.0
        ],
        "metallicFactor": 0.0,
        "roughnessFactor": 0.5
      }
    },
    {
      "doubleSided": true,
      "name": "Material.005",
      "pbrMetallicRoughness": {
        "baseColorFactor": [
          0.763681,
          0.8,
          0.0,
          1.0
        ],
        "metallicFactor": 0.0,
        "roughnessFactor": 0.5
      }
    }
  ],
  "meshes": [
    {
      "name": "Object_0",
      "primitives": [
        {
          "attributes": {
            "NORMAL": 1,
            "POSITION": 0,
            "TEXCOORD_0": 2
          },
          "indices": 3,
          "material": 1,
          "mode": 4
        }
      ]
    },
    {
      "name": "Object_1",
      "primitives": [
        {
          "attributes": {
            "NORMAL": 5,
            "POSITION": 4,
            "TEXCOORD_0": 6
          },
          "indices": 7,
          "material": 0,
          "mode": 4
        }
      ]
    },
    {
      "name": "Object_2",
      "primitives": [
        {
          "attributes": {
            "NORMAL": 9,
            "POSITION": 8,
            "TEXCOORD_0": 10
          },
          "indices": 11,
          "material": 2,
          "mode": 4
        }
      ]
    },
    {
      "name": "Object_3",
      "primitives": [
        {
          "attributes": {
            "NORMAL": 13,
            "POSITION": 12,
            "TEXCOORD_0": 14
          },
          "indices": 15,
          "material": 0,
          "mode": 4
        }
      ]
    },
    {
      "name": "Object_4",
      "primitives": [
        {
          "attributes": {
            "NORMAL": 17,
            "POSITION": 16,
            "TEXCOORD_0": 18
          },
          "indices": 19,
          "material": 3,
          "mode": 4
        }
      ]
    },
    {
      "name": "Object_5",
      "primitives": [
        {
          "attributes": {
            "NORMAL": 21,
            "POSITION": 20,
            "TEXCOORD_0": 22
          },
          "indices": 23,
          "material": 3,
          "mode": 4
        }
      ]
    },
    {
      "name": "Object_6",
      "primitives": [
        {
          "attributes": {
            "NORMAL": 25,
            "POSITION": 24,
            "TEXCOORD_0": 26
          },
          "indices": 27,
          "material": 3,
          "mode": 4
        }
      ]
    },
    {
      "name": "Object_7",
      "primitives": [
        {
          "attributes": {
            "NORMAL": 29,
            "POSITION": 28
          },
          "indices": 30,
          "material": 3,
          "mode": 4
        }
      ]
    },
    {
      "name": "Object_8",
      "primitives": [
        {
          "attributes": {
            "NORMAL": 32,
            "POSITION": 31
          },
          "indices": 33,
          "material": 3,
          "mode": 4
        }
      ]
    },
    {
      "name": "Object_9",
      "primitives": [
        {
          "attributes": {
            "NORMAL": 35,
            "POSITION": 34
          },
          "indices": 36,
          "material": 3,
          "mode": 4
        }
      ]
    },
    {
      "name": "Object_10",
      "primitives": [
        {
          "attributes": {
            "NORMAL": 38,
            "POSITION": 37
          },
          "indices": 39,
          "material": 3,
          "mode": 4
        }
      ]
    },
    {
      "name": "Object_11",
      "primitives": [
        {
          "attributes": {
            "NORMAL": 41,
            "POSITION": 40
          },
          "indices": 42,
          "material": 3,
          "mode": 4
        }
      ]
    },
    {
      "name": "Object_12",
      "primitives": [
        {
          "attributes": {
            "NORMAL": 44,
            "POSITION": 43
          },
          "indices": 45,
          "material": 3,
          "mode": 4
        }
      ]
    },
    {
      "name": "Object_13",
      "primitives": [
        {
          "attributes": {
            "NORMAL": 47,
            "POSITION": 46,
            "TEXCOORD_0": 48
          },
          "indices": 49,
          "material": 4,
          "mode": 4
        }
      ]
    }
  ],
  "nodes": [
    {
      "children": [
        1
      ],
      "matrix": [
        1.0,
        0.0,
        0.0,
        0.0,
        0.0,
        2.220446049250313e-16,
        -1.0,
        0.0,
        0.0,
        1.0,
        2.220446049250313e-16,
        0.0,
        0.0,
        0.0,
        0.0,
        1.0
      ],
      "name": "Sketchfab_model"
    },
    {
      "children": [
        2
      ],
      "name": "root"
    },
    {
      "children": [
        3,
        6,
        9,
        11,
        13,
        15,
        22
      ],
      "matrix": [
        1.0,
        0.0,
        0.0,
        0.0,
        0.0,
        2.220446049250313e-16,
        1.0,
        0.0,
        0.0,
        -1.0,
        2.220446049250313e-16,
        0.0,
        0.0,
        0.0,
        0.0,
        1.0
      ],
      "name": "GLTF_SceneRootNode"
    },
    {
      "children": [
        4,
        5
      ],
      "matrix": [
        0.6993396282196045,
        0.0,
        0.0,
        0.0,
        0.0,
        1.0,
        0.0,
        0.0,
        0.0,
        0.0,
        1.0,
        0.0,
        0.0,
        0.0,
        0.0,
        1.0
      ],
      "name": "Cube_0"
    },
    {
      "mesh": 0,
      "name": "Object_4"
    },
    {
      "mesh": 1,
      "name": "Object_5"
    },
    {
      "children": [
        7,
        8
      ],
      "matrix": [
        0.586924476608875,
        0.0,
        -0.23688868007557987,
        0.0,
        0.0,
        0.9050351977348328,
        0.0,
        0.0,
        0.3387319441836421,
        0.0,
        0.8392552526666114,
        0.0,
        0.0,
        0.2670062780380249,
        0.0,
        1.0
      ],
      "name": "Cube.001_3"
    },
    {
      "mesh": 2,
      "name": "Object_7"
    },
    {
      "mesh": 3,
      "name": "Object_8"
    },
    {
      "children": [
        10
      ],
      "matrix": [
        0.4511502981185913,
        0.0,
        0.0,
        0.0,
        -0.0,
        -0.17210252583026886,
        -0.0,
        -0.0,
        0.0,
        0.0,
        0.4511502981185913,
        0.0,
        0.0,
        0.5340125560760498,
        0.0,
        1.0
      ],
      "name": "Cylinder_4"
    },
    {
      "mesh": 4,
      "name": "Object_10"
    },
    {
      "children": [
        12
      ],
      "matrix": [
        0.6580004096031189,
        0.0,
        0.0,
        0.0,
        0.0,
        0.6580004096031189,
        0.0,
        0.0,
        0.0,
        0.0,
        0.6580004096031189,
        0.0,
        0.0,
        0.7069917917251587,
        0.0,
        1.0
      ],
      "name": "Plane_5"
    },
    {
      "mesh": 5,
      "name": "Object_12"
    },
    {
      "children": [
        14
      ],
      "matrix": [
        0.17960017919540405,
        0.0,
        0.0,
        0.0,
        -0.0,
        -0.06375352293252945,
        -0.0,
        -0.0,
        0.0,
        0.0,
        0.17960017919540405,
        0.0,
        0.0,
        0.7777248024940491,
        0.0,
        1.0
      ],
      "name": "Cylinder.001_6"
    },
    {
      "mesh": 6,
      "name": "Object_14"
    },
    {
      "children": [
        16,
        17,
        18,
        19,
        20,
        21
      ],
      "matrix": [
        1.0,
        0.0,
        0.0,
        0.0,
        0.0,
        1.0,
        0.0,
        0.0,
        0.0,
        0.0,
        1.0,
        0.0,
        0.0,
        0.7777248024940491,
        0.0,
        1.0
      ],
      "name": "Vert_7"
    },
    {
      "mesh": 7,
      "name": "Object_16"
    },
    {
      "mesh": 8,
      "name": "Object_17"
    },
    {
      "mesh": 9,
      "name": "Object_18"
    },
    {
      "mesh": 10,
      "name": "Object_19"
    },
    {
      "mesh": 11,
      "name": "Object_20"
    },
    {
      "mesh": 12,
      "name": "Object_21"
    },
    {
      "children": [
        23
      ],
      "matrix": [
        0.07150405645370483,
        0.0,
        0.0,
        0.0,
        -0.0,
        -0.08529672026634216,
        -0.0,
        -0.0,
        0.0,
        0.0,
        0.09084279090166092,
        0.0,
        0.9858220219612122,
        0.04286515712738037,
        0.0,
        1.0
      ],
      "name": "Sphere_8"
    },
    {
      "mesh": 13,
      "name": "Object_23"
    }
  ],
  "scene": 0,
  "scenes": [
    {
      "name": "Sketchfab_Scene",
      "nodes": [
        0
      ]
    }
  ]
}
